<?xml version="1.0" encoding="UTF-8" standalone="no"?>
<!DOCTYPE svg PUBLIC "-//W3C//DTD SVG 1.1//EN"
 "http://www.w3.org/Graphics/SVG/1.1/DTD/svg11.dtd">
<!-- Generated by graphviz version 12.1.2 (20240928.0832)
 -->
<!-- Title: Amazon DynamoDB (ap&#45;northeast&#45;1) Pages: 1 -->
<svg width="271pt" height="253pt"
 viewBox="0.00 0.00 270.55 253.20" xmlns="http://www.w3.org/2000/svg" xmlns:xlink="http://www.w3.org/1999/xlink">
<g id="graph0" class="graph" transform="scale(1 1) rotate(0) translate(4 249.2)">
<title>Amazon DynamoDB (ap&#45;northeast&#45;1)</title>
<polygon fill="white" stroke="none" points="-4,4 -4,-249.2 266.55,-249.2 266.55,4 -4,4"/>
<!-- vigil -->
<g id="node1" class="node">
<title>vigil</title>
<polygon fill="#efefef" stroke="none" points="43.2,-166.4 43.2,-202 219.35,-202 219.35,-166.4 43.2,-166.4"/>
<polygon fill="none" stroke="black" points="43.2,-166.4 43.2,-202 219.35,-202 219.35,-166.4 43.2,-166.4"/>
<text text-anchor="start" x="50.2" y="-179.8" font-family="Arial Bold" font-size="18.00">vigil</text>
<text text-anchor="start" x="83.2" y="-179.8" font-family="Arial" font-size="14.00">    </text>
<text text-anchor="start" x="114.32" y="-179.8" font-family="Arial" font-size="14.00" fill="#666666">[BASIC TABLE]</text>
<polygon fill="none" stroke="black" points="43.2,-135.6 43.2,-166.4 219.35,-166.4 219.35,-135.6 43.2,-135.6"/>
<text text-anchor="start" x="50.2" y="-147.8" font-family="Arial" font-size="14.00">pk </text>
<text text-anchor="start" x="68.88" y="-147.8" font-family="Arial" font-size="14.00" fill="#666666">[S]</text>
<polygon fill="none" stroke="black" points="43.2,-104.8 43.2,-135.6 219.35,-135.6 219.35,-104.8 43.2,-104.8"/>
<text text-anchor="start" x="50.2" y="-117" font-family="Arial" font-size="14.00">sk </text>
<text text-anchor="start" x="68.09" y="-117" font-family="Arial" font-size="14.00" fill="#666666">[S]</text>
<polygon fill="none" stroke="black" points="43.2,-74 43.2,-104.8 219.35,-104.8 219.35,-74 43.2,-74"/>
<text text-anchor="start" x="50.2" y="-86.2" font-family="Arial" font-size="14.00">gsi1pk </text>
<text text-anchor="start" x="94.56" y="-86.2" font-family="Arial" font-size="14.00" fill="#666666">[S]</text>
<polygon fill="none" stroke="black" points="43.2,-43.2 43.2,-74 219.35,-74 219.35,-43.2 43.2,-43.2"/>
<text text-anchor="start" x="50.2" y="-55.4" font-family="Arial" font-size="14.00">gsi1sk </text>
<text text-anchor="start" x="93.77" y="-55.4" font-family="Arial" font-size="14.00" fill="#666666">[S]</text>
</g>
</g>
</svg>
